<svg width="21" height="21" viewBox="0 0 21 21" fill="none" xmlns="http://www.w3.org/2000/svg">
<path fill-rule="evenodd" clip-rule="evenodd" d="M20.0209 16.7064C19.5375 15.418 18.7962 14.2421 17.8426 13.2506C16.8891 12.2591 15.7432 11.4729 14.4752 10.9402C15.1647 10.3735 15.7216 9.66218 16.1064 8.85655C16.4912 8.05092 16.6946 7.17057 16.7023 6.27767C16.6774 4.71282 16.0738 3.21274 15.0083 2.0672C13.9428 0.921659 12.4909 0.211935 10.933 0.0751682C10.4229 0.0118905 9.9069 0.0118905 9.39676 0.0751682C7.83982 0.213103 6.38909 0.923341 5.3246 2.06876C4.26012 3.21419 3.6573 4.7136 3.63251 6.27767C3.63993 7.17062 3.84324 8.05104 4.22805 8.8567C4.61287 9.66237 5.16984 10.3736 5.85954 10.9402C4.59135 11.4726 3.44519 12.2587 2.49137 13.2503C1.53754 14.2418 0.796145 15.4179 0.312637 16.7064C0.176249 17.0831 0.13576 17.4879 0.194856 17.8842C0.253951 18.2806 0.410764 18.6559 0.651116 18.9764C0.90053 19.3056 1.22323 19.572 1.59356 19.7545C1.96389 19.937 2.37167 20.0305 2.78445 20.0276H17.5591C17.9715 20.0304 18.3789 19.9368 18.7488 19.7543C19.1187 19.5718 19.441 19.3055 19.6899 18.9764C19.9296 18.6556 20.0855 18.2799 20.1433 17.8834C20.2011 17.487 20.159 17.0824 20.0209 16.7064ZM6.24673 6.27767C6.264 5.32987 6.63413 4.42264 7.28469 3.73365C7.93526 3.04465 8.81938 2.6235 9.76394 2.55266C10.0331 2.51932 10.3054 2.51932 10.5746 2.55266C11.285 2.66166 11.9492 2.97224 12.4886 3.44755C13.028 3.92285 13.4199 4.54297 13.6179 5.23439C13.8159 5.92581 13.8116 6.65953 13.6056 7.3486C13.3996 8.03767 13.0005 8.65318 12.4556 9.12217C11.9107 9.59116 11.2429 9.89395 10.5313 9.99466C9.81971 10.0954 9.09414 9.98978 8.44067 9.6904C7.7872 9.39103 7.23322 8.91043 6.84437 8.30556C6.45551 7.70068 6.24811 6.99691 6.24673 6.27767ZM2.78193 17.5277C3.37387 16.0515 4.3938 14.7865 5.71039 13.8955C7.02697 13.0045 8.57994 12.5284 10.1693 12.5284C11.7586 12.5284 13.3115 13.0045 14.6281 13.8955C15.9447 14.7865 16.9646 16.0515 17.5566 17.5277H2.78445H2.78193Z" fill="#22262A"/>
</svg>
