<svg width="14" height="14" viewBox="0 0 14 14" fill="none" xmlns="http://www.w3.org/2000/svg">
<path fill-rule="evenodd" clip-rule="evenodd" d="M6.25 2C3.90279 2 2 3.90279 2 6.25C2 8.59721 3.90279 10.5 6.25 10.5C8.59721 10.5 10.5 8.59721 10.5 6.25C10.5 3.90279 8.59721 2 6.25 2ZM0 6.25C0 2.79822 2.79822 0 6.25 0C9.70178 0 12.5 2.79822 12.5 6.25C12.5 9.70178 9.70178 12.5 6.25 12.5C2.79822 12.5 0 9.70178 0 6.25Z" fill="#40BFFF"/>
<path fill-rule="evenodd" clip-rule="evenodd" d="M9.29289 9.29289C9.68342 8.90237 10.3166 8.90237 10.7071 9.29289L13.7071 12.2929C14.0976 12.6834 14.0976 13.3166 13.7071 13.7071C13.3166 14.0976 12.6834 14.0976 12.2929 13.7071L9.29289 10.7071C8.90237 10.3166 8.90237 9.68342 9.29289 9.29289Z" fill="#40BFFF"/>
</svg>
